<svg width="800" height="800" viewBox="0 0 800 800" fill="none" xmlns="http://www.w3.org/2000/svg">
<rect y="3.05176e-05" width="800" height="800" rx="400" fill="#00B4D8"/>
<path d="M150.575 171.912C151.054 167.106 156.556 164.62 160.479 167.438L275.225 249.863C279.148 252.681 278.549 258.689 274.147 260.677L145.393 318.837C140.991 320.826 136.087 317.303 136.566 312.497L150.575 171.912Z" fill="#FCFBFB"/>
<path d="M568.011 121.285C571.354 117.799 577.218 119.24 578.565 123.879L617.964 259.555C619.311 264.193 615.132 268.55 610.441 267.398L473.243 233.681C468.552 232.528 466.868 226.73 470.212 223.244L568.011 121.285Z" fill="#FCFBFB"/>
<ellipse cx="411.326" cy="412.918" rx="338.084" ry="202.115" transform="rotate(-5.41619 411.326 412.918)" fill="white"/>
<path d="M276.077 363.922L344.328 378.981C353.3 380.961 354.41 393.305 345.935 396.853L282.232 423.53" stroke="black" stroke-width="6.27451"/>
<path d="M357.646 487.844L386.754 516.952C397.455 527.653 415.619 523.882 421.175 509.805V509.805C426.732 495.727 444.895 491.956 455.597 502.658L456.838 503.899C467.932 514.992 486.721 511.374 492.901 496.954L503.528 472.158" stroke="black" stroke-width="6.27451"/>
<ellipse cx="508.859" cy="370.849" rx="18.8235" ry="29.8039" transform="rotate(-7.57337 508.859 370.849)" fill="black"/>
</svg>
